<svg version="1.1" id="Layer_1" xmlns="http://www.w3.org/2000/svg" xmlns:xlink="http://www.w3.org/1999/xlink" x="0px" y="0px"
	 width="100%" viewBox="0 0 2050 1457" enable-background="new 0 0 2050 1457" xml:space="preserve">
<path fill="#FFFFFF" opacity="1.000000" stroke="none" 
	d="
M1276.000000,1458.000000 
	C850.666687,1458.000000 425.833344,1458.000000 1.000000,1458.000000 
	C1.000000,972.333313 1.000000,486.666656 1.000000,1.000000 
	C684.333313,1.000000 1367.666626,1.000000 2051.000000,1.000000 
	C2051.000000,486.666656 2051.000000,972.333313 2051.000000,1458.000000 
	C1792.833374,1458.000000 1534.666626,1458.000000 1276.000000,1458.000000 
M1192.507690,579.051331 
	C1187.129150,580.001648 1181.748901,580.941833 1176.372437,581.903870 
	C1135.593628,589.200745 1094.812988,596.487610 1054.040161,603.818054 
	C1048.076660,604.890137 1042.922241,604.558228 1037.032349,601.442383 
	C1025.242432,595.205444 1012.379395,594.272705 999.120361,598.682861 
	C998.415710,596.992249 997.671936,595.316772 997.012207,593.608826 
	C976.189087,539.710388 955.380127,485.806519 934.552551,431.909851 
	C930.732117,422.023346 927.605286,419.882721 916.959167,420.029816 
	C875.471497,420.602997 833.985229,421.277100 792.497070,421.804962 
	C748.838501,422.360413 705.178406,422.791351 661.518982,423.278442 
	C660.185852,423.293304 658.846985,423.254608 657.520996,423.364166 
	C645.630005,424.346405 640.423035,432.167633 644.261780,443.497040 
	C666.382019,508.781586 688.524841,574.058533 710.751648,639.306763 
	C711.692383,642.068420 713.540100,644.521057 714.340088,647.653076 
	C712.693298,647.756653 711.046631,647.949585 709.399780,647.950562 
	C679.673706,647.968018 649.947632,647.962341 620.095642,647.089417 
	C618.904602,641.779541 617.754700,636.459900 616.507080,631.163391 
	C615.760376,627.993164 613.809937,627.040100 610.428345,626.907410 
	C590.467590,626.124634 570.520081,625.003174 550.035828,623.968872 
	C549.610657,620.881287 548.733459,617.955139 548.891968,615.086304 
	C549.735535,599.820740 545.882141,585.409424 541.388062,571.079102 
	C525.056702,519.002808 508.734100,466.923767 492.428619,414.839355 
	C490.231415,407.820923 490.894043,407.240021 498.019592,405.789642 
	C501.246368,405.132812 504.423187,403.360779 507.169739,401.445282 
	C510.284912,399.272797 513.072205,396.542297 515.693909,393.763672 
	C544.962646,362.743347 574.109985,331.608368 603.426086,300.633057 
	C615.789734,287.569641 628.497864,274.832642 641.000916,261.900330 
	C644.579285,258.199097 648.355835,258.147430 651.962463,261.421906 
	C654.879089,264.069916 658.377563,266.807068 659.778015,270.252533 
	C663.387878,279.134186 666.247620,288.353210 668.889343,297.585602 
	C670.988831,304.923035 671.850464,312.626038 674.108093,319.904175 
	C677.514709,330.886658 685.153564,335.234558 695.687195,331.110931 
	C705.649597,327.210968 715.774048,322.647736 724.275757,316.298767 
	C748.278076,298.374268 768.927734,276.742859 787.375305,253.228287 
	C793.840698,244.987167 798.497131,235.118698 802.817017,225.472717 
	C805.916504,218.551895 803.405579,212.960876 796.169434,210.719009 
	C775.722168,204.384201 755.930969,195.009644 733.551758,196.931580 
	C714.498901,198.567841 696.292725,192.754745 677.802551,189.554337 
	C665.719727,187.462936 653.828491,183.719025 641.286865,185.772263 
	C631.307678,187.405991 626.660217,191.719055 626.012939,201.691071 
	C625.633423,207.538757 626.453735,213.464310 626.706665,218.774734 
	C625.302795,219.242432 623.329895,219.293839 622.890625,220.140671 
	C618.946838,227.744736 624.509521,232.707855 628.060486,238.483383 
	C625.668457,237.188705 623.276367,235.894043 620.586365,234.438141 
	C619.861755,236.014725 618.801941,237.310486 618.715881,238.667984 
	C618.041138,249.313629 610.793274,255.876526 604.014771,262.729279 
	C559.238770,307.995483 513.177856,351.910034 465.443756,394.051392 
	C462.895050,396.301453 462.457062,398.208008 463.287292,401.269501 
	C478.762756,458.333099 494.156769,515.418762 509.568542,572.499573 
	C514.165100,589.523682 518.763428,606.547180 523.518372,624.153809 
	C515.643677,624.749329 508.205475,625.598572 500.749237,625.808960 
	C489.425873,626.128723 478.075439,625.667419 466.763123,626.155029 
	C452.648743,626.763306 448.331818,631.813293 448.705963,645.980835 
	C448.723389,646.640137 448.607117,647.302917 447.672333,647.924683 
	C445.506012,647.937744 443.339661,647.962158 441.173340,647.962219 
	C391.677917,647.964417 342.182312,648.028015 292.687469,647.858887 
	C288.038879,647.843018 286.762573,649.153015 286.884644,653.718933 
	C287.196411,665.376160 287.219116,677.054016 286.878571,688.709656 
	C286.736084,693.586792 287.803741,695.252380 293.109192,695.189270 
	C319.103088,694.880249 345.102722,695.048584 371.100311,695.049561 
	C378.000519,695.049805 378.001923,695.051880 378.002228,702.096069 
	C378.010620,899.077820 378.017181,1096.059570 378.028656,1293.041260 
	C378.030029,1316.705566 378.057556,1340.369873 377.120392,1364.066162 
	C294.469116,1364.069702 211.817810,1364.061523 129.166565,1364.119995 
	C125.870644,1364.122314 122.335785,1364.142334 119.359070,1365.301636 
	C117.173836,1366.152588 114.774689,1368.618652 114.155540,1370.835449 
	C113.147636,1374.443970 116.290642,1376.215210 119.380844,1376.803467 
	C122.944923,1377.482300 126.620453,1377.879761 130.247635,1377.880005 
	C727.470825,1377.924927 1324.694092,1377.923096 1921.917236,1377.922974 
	C1923.083740,1377.922974 1924.278442,1378.085571 1925.411011,1377.889282 
	C1928.172852,1377.410889 1930.965576,1376.958496 1933.633911,1376.133911 
	C1936.299683,1375.309692 1939.097534,1373.564819 1937.846436,1370.489868 
	C1936.952515,1368.292847 1934.497559,1366.117310 1932.233521,1365.246216 
	C1929.393799,1364.153931 1926.037109,1364.120972 1922.903442,1364.119141 
	C1853.249878,1364.077515 1783.596313,1364.103516 1714.305054,1363.541992 
	C1728.147095,1355.515747 1724.955811,1334.245483 1710.547607,1331.117676 
	C1709.430298,1330.875122 1708.177002,1328.261841 1708.110229,1326.702393 
	C1707.835571,1320.288452 1707.995239,1313.856079 1707.995239,1307.528320 
	C1659.957764,1307.528320 1612.755493,1307.528320 1564.995117,1307.528320 
	C1564.995117,1305.188354 1564.994995,1303.061157 1564.994995,1300.933960 
	C1564.994995,1203.440063 1565.008057,1105.946167 1564.955200,1008.452332 
	C1564.952637,1003.733215 1564.340210,999.050781 1570.196167,997.071472 
	C1570.981567,996.806091 1571.312744,995.404114 1572.082520,994.840271 
	C1573.531494,993.779114 1575.120972,992.188354 1576.697021,992.134460 
	C1591.987305,991.611206 1607.286011,991.281067 1622.584473,991.060486 
	C1633.581787,990.901855 1644.582642,990.993652 1655.581909,990.973450 
	C1667.971558,990.950684 1668.252930,990.942078 1667.876831,978.446289 
	C1667.740723,973.922485 1669.610107,972.634644 1673.347290,972.108887 
	C1690.060059,969.757812 1706.731567,967.056885 1723.492065,965.127991 
	C1730.754028,964.292236 1735.935059,961.408569 1739.352173,955.084656 
	C1739.903931,954.063782 1740.672119,953.161316 1741.243774,952.149597 
	C1747.724487,940.679871 1747.197144,926.489563 1735.707275,918.775940 
	C1730.553711,915.316101 1729.329224,911.190552 1729.087036,906.070129 
	C1728.294922,889.315979 1727.712280,872.551941 1727.029175,855.792542 
	C1726.380127,839.865173 1725.697998,823.939087 1725.045532,808.011780 
	C1724.365845,791.418884 1723.709595,774.824951 1723.033081,758.231934 
	C1722.376831,742.138184 1721.697021,726.045349 1721.047119,709.951355 
	C1720.363525,693.025269 1719.713867,676.097839 1719.029907,659.171753 
	C1718.379761,643.077881 1717.639771,626.987427 1717.056885,610.891113 
	C1716.305176,590.133789 1715.602783,569.374023 1715.055664,548.610657 
	C1714.969360,545.332764 1714.322876,543.942017 1710.641724,543.915894 
	C1693.343262,543.792969 1676.047852,543.289429 1658.749512,543.063232 
	C1628.454102,542.667175 1598.157471,542.330750 1567.860718,542.054565 
	C1549.031616,541.882935 1530.201172,541.868103 1511.839478,541.221558 
	C1516.246948,538.558655 1520.908936,536.237183 1525.018555,533.174438 
	C1543.918335,519.089294 1557.054077,500.344788 1566.658569,479.180725 
	C1589.535889,428.769226 1596.910889,376.023407 1588.792969,321.250305 
	C1586.386719,305.014984 1581.996460,289.051910 1572.366577,275.597534 
	C1543.874512,235.790131 1506.985107,206.350174 1461.359009,188.097397 
	C1459.233398,187.246979 1457.209229,185.461639 1455.801758,183.607666 
	C1446.649048,171.552200 1438.044434,159.064606 1428.572388,147.271027 
	C1411.010254,125.404625 1390.743530,106.504013 1365.496094,93.644485 
	C1341.173462,81.255920 1315.720093,77.140785 1289.069702,84.652351 
	C1261.945190,92.297493 1240.212280,108.330574 1221.544922,128.953506 
	C1218.425659,132.399628 1215.805176,136.589706 1212.060791,139.106689 
	C1206.903198,142.573563 1204.254883,147.025497 1203.033081,152.789886 
	C1200.658325,163.993896 1202.238647,175.119354 1204.757568,185.930359 
	C1210.111694,208.910553 1216.292969,231.697021 1222.040405,254.586700 
	C1230.261353,287.326477 1237.579956,320.353088 1251.768311,351.237823 
	C1259.903809,368.947083 1269.909912,385.354248 1286.119629,397.686859 
	C1267.135742,434.988159 1248.187500,472.307709 1229.154541,509.584015 
	C1217.299683,532.801941 1205.316772,555.954529 1192.507690,579.051331 
z"/>
<path fill="#D6D6E3" opacity="1.000000" stroke="none" 
	d="
M378.072937,1364.034180 
	C378.057556,1340.369873 378.030029,1316.705566 378.028656,1293.041260 
	C378.017181,1096.059570 378.010620,899.077820 378.002228,702.096069 
	C378.001923,695.051880 378.000519,695.049805 371.100311,695.049561 
	C345.102722,695.048584 319.103088,694.880249 293.109192,695.189270 
	C287.803741,695.252380 286.736084,693.586792 286.878571,688.709656 
	C287.219116,677.054016 287.196411,665.376160 286.884644,653.718933 
	C286.762573,649.153015 288.038879,647.843018 292.687469,647.858887 
	C342.182312,648.028015 391.677917,647.964417 441.173340,647.962219 
	C443.339661,647.962158 445.506012,647.937744 448.256866,648.351196 
	C449.249329,651.052551 449.657288,653.327454 450.076477,655.665039 
	C451.292999,655.740417 452.278534,655.839600 453.265472,655.857239 
	C501.620819,656.723206 549.975708,657.617920 598.332703,658.375305 
	C602.275696,658.437073 606.273804,657.776489 610.174255,657.059570 
	C615.283813,656.120483 618.967163,653.305908 620.221558,647.961548 
	C649.947632,647.962341 679.673706,647.968018 709.399780,647.950562 
	C711.046631,647.949585 712.693298,647.756653 714.978699,647.510559 
	C719.500488,648.534790 723.393311,650.733582 727.265320,650.697693 
	C749.235596,650.494141 771.198914,649.650391 793.168457,649.226807 
	C819.812439,648.713135 846.460388,648.403870 873.106384,647.994385 
	C875.267700,647.961121 877.427551,647.837036 879.994263,647.770630 
	C898.835205,647.864929 917.269958,647.993591 935.704773,648.001831 
	C945.157104,648.006042 954.609558,647.795105 964.525574,647.710449 
	C999.966248,647.761414 1034.943359,647.783386 1069.814819,648.172852 
	C1062.435059,664.509766 1069.342651,683.166748 1085.445679,691.768738 
	C1103.460693,701.391968 1132.696045,698.841858 1147.121094,681.256165 
	C1149.598633,678.235840 1152.567505,677.277832 1156.117798,677.028015 
	C1170.650879,676.005493 1185.194824,675.114441 1199.712524,673.905701 
	C1221.800049,672.066650 1243.859985,669.894165 1265.948608,668.070496 
	C1284.424683,666.544983 1302.929688,665.370605 1321.409668,663.889465 
	C1323.788086,663.698792 1327.137329,664.085876 1327.463867,659.879089 
	C1342.372437,658.171509 1356.907593,656.694092 1371.404663,654.908630 
	C1377.595337,654.146240 1384.964478,655.862000 1388.403442,647.997498 
	C1388.750366,647.204102 1389.932251,646.775879 1390.058960,646.680664 
	C1393.262573,647.135254 1395.784180,647.791016 1398.308960,647.803528 
	C1416.290527,647.893127 1434.272949,647.843933 1452.255005,647.863159 
	C1454.011108,647.864990 1455.766968,648.031311 1457.555420,648.122986 
	C1457.555420,664.216003 1457.555420,679.764465 1457.555420,695.908936 
	C1443.753540,695.908936 1430.302490,695.908936 1416.468262,695.806763 
	C1408.332642,695.704529 1400.580322,695.704529 1392.837402,695.704529 
	C1392.837402,768.211548 1392.837402,840.232727 1392.837402,912.527466 
	C1395.852661,912.527466 1398.498901,912.591431 1401.141235,912.517151 
	C1419.621826,911.998169 1438.112427,911.692017 1456.579346,910.861023 
	C1493.000610,909.221924 1529.431641,907.477234 1565.264038,899.956909 
	C1571.081421,898.736023 1577.953003,898.608887 1582.381714,895.332642 
	C1612.937988,872.727356 1628.307495,842.455261 1616.182495,802.509644 
	C1612.159302,789.255066 1605.484497,776.805420 1600.284668,763.757812 
	C1604.575562,757.435669 1604.585815,751.934570 1599.485596,746.049377 
	C1594.053589,739.781250 1589.551147,732.714844 1584.525024,726.086365 
	C1569.333252,706.052063 1553.878418,686.285034 1534.469849,669.952271 
	C1530.806274,666.869324 1528.130737,662.228455 1525.948364,657.835083 
	C1516.270020,638.350952 1512.357788,617.227722 1510.130493,595.883789 
	C1508.321899,578.552795 1507.942627,561.072693 1507.130615,543.421387 
	C1508.678345,542.717102 1510.024780,542.250000 1511.371338,541.782959 
	C1530.201172,541.868103 1549.031616,541.882935 1567.860718,542.054565 
	C1598.157471,542.330750 1628.454102,542.667175 1658.749512,543.063232 
	C1676.047852,543.289429 1693.343262,543.792969 1710.641724,543.915894 
	C1714.322876,543.942017 1714.969360,545.332764 1715.055664,548.610657 
	C1715.602783,569.374023 1716.305176,590.133789 1717.056885,610.891113 
	C1717.639771,626.987427 1718.379761,643.077881 1719.029907,659.171753 
	C1719.713867,676.097839 1720.363525,693.025269 1721.047119,709.951355 
	C1721.697021,726.045349 1722.376831,742.138184 1723.033081,758.231934 
	C1723.709595,774.824951 1724.365845,791.418884 1725.045532,808.011780 
	C1725.697998,823.939087 1726.380127,839.865173 1727.029175,855.792542 
	C1727.712280,872.551941 1728.294922,889.315979 1729.087036,906.070129 
	C1729.329224,911.190552 1730.553711,915.316101 1735.707275,918.775940 
	C1747.197144,926.489563 1747.724487,940.679871 1741.243774,952.149597 
	C1740.672119,953.161316 1739.903931,954.063782 1739.352173,955.084656 
	C1735.935059,961.408569 1730.754028,964.292236 1723.492065,965.127991 
	C1706.731567,967.056885 1690.060059,969.757812 1673.347290,972.108887 
	C1669.610107,972.634644 1667.740723,973.922485 1667.876831,978.446289 
	C1668.252930,990.942078 1667.971558,990.950684 1655.581909,990.973450 
	C1644.582642,990.993652 1633.581787,990.901855 1622.584473,991.060486 
	C1607.286011,991.281067 1591.987305,991.611206 1576.697021,992.134460 
	C1575.120972,992.188354 1573.531494,993.779114 1572.082520,994.840271 
	C1571.312744,995.404114 1570.981567,996.806091 1570.196167,997.071472 
	C1564.340210,999.050781 1564.952637,1003.733215 1564.955200,1008.452332 
	C1565.008057,1105.946167 1564.994995,1203.440063 1564.994995,1300.933960 
	C1564.994995,1303.061157 1564.995117,1305.188354 1564.995117,1307.528320 
	C1612.755493,1307.528320 1659.957764,1307.528320 1707.995239,1307.528320 
	C1707.995239,1313.856079 1707.835571,1320.288452 1708.110229,1326.702393 
	C1708.177002,1328.261841 1709.430298,1330.875122 1710.547607,1331.117676 
	C1724.955811,1334.245483 1728.147095,1355.515747 1713.864868,1364.092529 
	C1708.238770,1364.726929 1703.052734,1364.810791 1697.853027,1364.568481 
	C1697.155029,1363.563843 1696.508423,1362.841919 1695.781006,1362.213501 
	C1686.594971,1354.277954 1686.011353,1344.319702 1694.189697,1335.263794 
	C1694.798218,1334.590088 1695.233643,1333.760376 1696.052246,1332.558594 
	C1679.100952,1332.558594 1662.744263,1332.558594 1645.691406,1332.558594 
	C1646.819946,1333.968628 1647.379639,1334.767700 1648.037964,1335.475098 
	C1655.788086,1343.804199 1655.635742,1352.722534 1647.696289,1360.915283 
	C1646.619141,1362.026733 1645.975342,1363.558105 1644.692627,1364.928223 
	C1638.790649,1364.937256 1633.326904,1364.913330 1627.866089,1364.554199 
	C1627.397217,1363.572388 1627.042114,1362.777344 1626.436401,1362.301270 
	C1618.391602,1355.981812 1616.600708,1347.324707 1621.788818,1338.566895 
	C1623.051392,1336.435669 1624.929932,1334.669312 1626.686646,1332.539429 
	C1557.299438,1332.539429 1488.412964,1332.539429 1420.939209,1332.539429 
	C1422.948364,1337.307861 1425.798096,1341.978638 1426.834961,1347.022339 
	C1428.396973,1354.620972 1423.557983,1359.769409 1417.701660,1364.391113 
	C1412.241577,1364.733032 1407.052002,1364.812134 1401.849121,1364.565918 
	C1398.617554,1361.942871 1395.399170,1359.645142 1392.180664,1357.347290 
	C1391.865234,1356.931396 1389.835938,1357.886719 1387.790161,1357.923462 
	C1378.516113,1358.089600 1369.221069,1358.329468 1359.966309,1357.875854 
	C1354.109741,1357.588745 1351.005859,1360.749146 1347.710449,1364.923340 
	C1342.784668,1364.927612 1338.290283,1364.899414 1333.684082,1364.599609 
	C1332.710938,1363.898193 1331.849487,1363.468384 1330.798340,1362.762817 
	C1319.355347,1353.982422 1320.560059,1338.821655 1332.855713,1332.053223 
	C1334.320801,1331.246704 1335.751953,1329.002441 1335.853149,1327.342407 
	C1336.214355,1321.427124 1335.994507,1315.476318 1335.994507,1309.678223 
	C1344.963013,1308.202515 1344.962891,1308.202515 1344.962891,1299.460693 
	C1344.962891,1266.138794 1344.962891,1232.816895 1344.962891,1199.494995 
	C1344.962891,1125.853638 1344.919556,1052.212158 1345.068848,978.571106 
	C1345.078003,974.065552 1343.796997,972.168640 1339.376709,971.169006 
	C1327.838623,968.559875 1316.635864,964.832947 1306.625977,958.294128 
	C1294.880615,950.621643 1285.495239,941.430908 1286.921875,925.351074 
	C1287.374512,922.857300 1287.823242,920.750244 1288.305542,918.650818 
	C1289.395874,913.904114 1291.660522,911.605103 1297.248169,911.886597 
	C1311.202637,912.589722 1325.198364,912.476807 1339.177612,912.683594 
	C1340.918823,912.709351 1342.660767,912.687134 1344.686890,912.687134 
	C1344.686890,910.072693 1344.686890,908.257568 1344.686890,906.442383 
	C1344.686890,870.324341 1344.702515,834.206360 1344.677612,798.088318 
	C1344.669556,786.441650 1344.554688,774.795105 1344.606445,762.689941 
	C1344.724121,751.678406 1344.724121,741.125549 1344.724121,730.117737 
	C1329.515747,730.117737 1314.944092,730.117737 1299.881104,730.092651 
	C1265.223145,730.054382 1231.056641,730.086487 1196.890503,729.959900 
	C1193.340820,729.946716 1191.870483,730.672729 1191.936646,734.610413 
	C1192.177612,748.939758 1192.065308,763.275146 1191.775879,777.775391 
	C1175.650269,782.319702 1159.834839,786.696899 1144.027832,790.600830 
	C1144.037231,772.130737 1143.882812,754.131592 1144.145264,736.138489 
	C1144.213135,731.481079 1143.160522,729.918762 1138.186768,729.922607 
	C969.548218,730.053101 800.909607,730.047241 632.270996,729.946106 
	C627.585144,729.943298 625.939575,731.127258 625.942383,736.075256 
	C626.059143,945.373718 626.048096,1154.672241 625.580994,1363.981934 
	C609.714294,1363.980713 594.319458,1363.968262 578.934082,1363.491699 
	C578.946045,1154.240234 578.949036,945.453003 578.949463,736.665771 
	C578.949463,730.044006 578.937256,730.033081 572.308594,730.032654 
	C525.485596,730.029358 478.662628,730.028137 431.839630,730.041443 
	C430.066498,730.041931 428.293396,730.197571 425.995087,730.305542 
	C425.995087,941.848328 425.995087,1152.926636 425.526733,1364.005127 
	C409.396576,1364.015015 393.734772,1364.024536 378.072937,1364.034180 
M1502.004883,1188.500000 
	C1502.004883,1126.559082 1502.004883,1064.618164 1502.004883,1002.629639 
	C1499.771118,1002.011841 1497.995239,1001.633301 1496.298462,1001.031738 
	C1488.968140,998.432739 1481.350098,996.381592 1474.466309,992.889709 
	C1470.556763,990.906372 1467.017090,989.933655 1462.795898,989.981995 
	C1451.051270,990.116394 1439.304199,990.028687 1427.258545,990.028687 
	C1427.088745,987.720764 1426.898804,985.140015 1426.698975,982.422852 
	C1415.459473,981.768738 1404.586792,981.135986 1393.180664,980.472168 
	C1393.104858,982.051575 1392.960205,983.659790 1392.960083,985.268005 
	C1392.949463,1091.403687 1392.982178,1197.539307 1392.843750,1303.674927 
	C1392.837646,1308.315063 1394.391724,1309.112671 1398.572754,1309.090698 
	C1431.229004,1308.918335 1463.886963,1308.884521 1496.542969,1309.059326 
	C1500.982788,1309.083130 1502.123901,1307.858521 1502.104004,1303.466309 
	C1501.931641,1265.478271 1502.004761,1227.488892 1502.004883,1188.500000 
M1396.494263,1337.114502 
	C1398.093262,1335.601318 1399.692261,1334.088013 1401.520020,1332.358398 
	C1391.339233,1331.520142 1391.198975,1331.708130 1392.464478,1344.669067 
	C1393.876465,1341.978271 1394.992065,1339.852173 1396.494263,1337.114502 
z"/>
<path fill="#0A0915" opacity="1.000000" stroke="none" 
	d="
M1511.605469,541.502197 
	C1510.024780,542.250000 1508.678345,542.717102 1506.751831,543.527954 
	C1501.291260,545.270386 1496.410767,546.669128 1491.098389,548.191589 
	C1491.098389,546.758545 1491.008057,546.118958 1491.111450,545.512329 
	C1494.517334,525.532410 1498.478760,505.629517 1501.238403,485.561218 
	C1505.442749,454.987152 1507.041138,424.292786 1502.022705,393.583099 
	C1498.441284,371.668640 1489.917480,353.315033 1469.625000,341.302826 
	C1458.865845,334.933899 1449.735229,325.813843 1439.821655,317.763794 
	C1439.345947,317.421783 1438.918091,317.251709 1438.179443,316.898438 
	C1404.775024,286.908234 1373.978027,254.869019 1345.075928,221.003525 
	C1341.823364,217.192444 1338.164673,214.685532 1333.494141,212.569138 
	C1300.180054,197.473389 1267.079590,181.906052 1233.941650,166.423172 
	C1231.827393,165.435364 1229.969482,163.899002 1227.791382,162.487671 
	C1223.187988,172.629288 1220.666382,183.378204 1220.313232,194.327133 
	C1219.163330,229.972900 1232.199219,259.334045 1260.821411,281.150055 
	C1281.027466,296.551300 1304.088867,302.675079 1329.282349,300.864655 
	C1332.770386,300.613983 1334.743408,301.485107 1336.457642,304.498260 
	C1339.002808,308.972198 1341.654297,313.484894 1344.937500,317.415497 
	C1349.401001,322.759064 1350.191650,328.172760 1346.881836,334.387878 
	C1335.314819,344.967682 1324.082275,355.482910 1312.798828,365.943024 
	C1311.368530,367.268890 1309.670776,368.306335 1307.706787,369.363190 
	C1304.322510,368.612457 1302.484009,369.821106 1300.944092,372.475250 
	C1296.166016,380.710846 1291.145630,388.805817 1286.219238,396.955353 
	C1269.909912,385.354248 1259.903809,368.947083 1251.768311,351.237823 
	C1237.579956,320.353088 1230.261353,287.326477 1222.040405,254.586700 
	C1216.292969,231.697021 1210.111694,208.910553 1204.757568,185.930359 
	C1202.238647,175.119354 1200.658325,163.993896 1203.033081,152.789886 
	C1204.254883,147.025497 1206.903198,142.573563 1212.060791,139.106689 
	C1215.805176,136.589706 1218.425659,132.399628 1221.544922,128.953506 
	C1240.212280,108.330574 1261.945190,92.297493 1289.069702,84.652351 
	C1315.720093,77.140785 1341.173462,81.255920 1365.496094,93.644485 
	C1390.743530,106.504013 1411.010254,125.404625 1428.572388,147.271027 
	C1438.044434,159.064606 1446.649048,171.552200 1455.801758,183.607666 
	C1457.209229,185.461639 1459.233398,187.246979 1461.359009,188.097397 
	C1506.985107,206.350174 1543.874512,235.790131 1572.366577,275.597534 
	C1581.996460,289.051910 1586.386719,305.014984 1588.792969,321.250305 
	C1596.910889,376.023407 1589.535889,428.769226 1566.658569,479.180725 
	C1557.054077,500.344788 1543.918335,519.089294 1525.018555,533.174438 
	C1520.908936,536.237183 1516.246948,538.558655 1511.605469,541.502197 
z"/>
<path fill="#6C63FF" opacity="1.000000" stroke="none" 
	d="
M879.588074,647.755127 
	C877.427551,647.837036 875.267700,647.961121 873.106384,647.994385 
	C846.460388,648.403870 819.812439,648.713135 793.168457,649.226807 
	C771.198914,649.650391 749.235596,650.494141 727.265320,650.697693 
	C723.393311,650.733582 719.500488,648.534790 715.291260,647.242859 
	C713.540100,644.521057 711.692383,642.068420 710.751648,639.306763 
	C688.524841,574.058533 666.382019,508.781586 644.261780,443.497040 
	C640.423035,432.167633 645.630005,424.346405 657.520996,423.364166 
	C658.846985,423.254608 660.185852,423.293304 661.518982,423.278442 
	C705.178406,422.791351 748.838501,422.360413 792.497070,421.804962 
	C833.985229,421.277100 875.471497,420.602997 916.959167,420.029816 
	C927.605286,419.882721 930.732117,422.023346 934.552551,431.909851 
	C955.380127,485.806519 976.189087,539.710388 997.012207,593.608826 
	C997.671936,595.316772 998.415710,596.992249 999.408447,599.339355 
	C1003.473755,609.765137 1007.250916,619.534424 1011.032227,629.704529 
	C1010.757874,640.375916 1006.314087,645.097046 996.069397,645.421082 
	C983.082336,645.831970 970.086304,645.956360 956.632080,646.099487 
	C931.939453,646.429565 907.708679,646.858643 883.478516,647.315979 
	C882.179443,647.340454 880.884766,647.603271 879.588074,647.755127 
z"/>
<path fill="#0B0A15" opacity="1.000000" stroke="none" 
	d="
M620.158569,647.525513 
	C618.967163,653.305908 615.283813,656.120483 610.174255,657.059570 
	C606.273804,657.776489 602.275696,658.437073 598.332703,658.375305 
	C549.975708,657.617920 501.620819,656.723206 453.265472,655.857239 
	C452.278534,655.839600 451.292999,655.740417 450.076477,655.665039 
	C449.657288,653.327454 449.249329,651.052551 448.697266,648.370850 
	C448.607117,647.302917 448.723389,646.640137 448.705963,645.980835 
	C448.331818,631.813293 452.648743,626.763306 466.763123,626.155029 
	C478.075439,625.667419 489.425873,626.128723 500.749237,625.808960 
	C508.205475,625.598572 515.643677,624.749329 523.518372,624.153809 
	C518.763428,606.547180 514.165100,589.523682 509.568542,572.499573 
	C494.156769,515.418762 478.762756,458.333099 463.287292,401.269501 
	C462.457062,398.208008 462.895050,396.301453 465.443756,394.051392 
	C513.177856,351.910034 559.238770,307.995483 604.014771,262.729279 
	C610.793274,255.876526 618.041138,249.313629 618.715881,238.667984 
	C618.801941,237.310486 619.861755,236.014725 620.586365,234.438141 
	C623.276367,235.894043 625.668457,237.188705 628.060486,238.483383 
	C624.509521,232.707855 618.946838,227.744736 622.890625,220.140671 
	C623.329895,219.293839 625.302795,219.242432 626.706665,218.774734 
	C626.453735,213.464310 625.633423,207.538757 626.012939,201.691071 
	C626.660217,191.719055 631.307678,187.405991 641.286865,185.772263 
	C653.828491,183.719025 665.719727,187.462936 677.802551,189.554337 
	C696.292725,192.754745 714.498901,198.567841 733.551758,196.931580 
	C755.930969,195.009644 775.722168,204.384201 796.169434,210.719009 
	C803.405579,212.960876 805.916504,218.551895 802.817017,225.472717 
	C798.497131,235.118698 793.840698,244.987167 787.375305,253.228287 
	C768.927734,276.742859 748.278076,298.374268 724.275757,316.298767 
	C715.774048,322.647736 705.649597,327.210968 695.687195,331.110931 
	C685.153564,335.234558 677.514709,330.886658 674.108093,319.904175 
	C671.850464,312.626038 670.988831,304.923035 668.889343,297.585602 
	C666.247620,288.353210 663.387878,279.134186 659.778015,270.252533 
	C658.377563,266.807068 654.879089,264.069916 651.962463,261.421906 
	C648.355835,258.147430 644.579285,258.199097 641.000916,261.900330 
	C628.497864,274.832642 615.789734,287.569641 603.426086,300.633057 
	C574.109985,331.608368 544.962646,362.743347 515.693909,393.763672 
	C513.072205,396.542297 510.284912,399.272797 507.169739,401.445282 
	C504.423187,403.360779 501.246368,405.132812 498.019592,405.789642 
	C490.894043,407.240021 490.231415,407.820923 492.428619,414.839355 
	C508.734100,466.923767 525.056702,519.002808 541.388062,571.079102 
	C545.882141,585.409424 549.735535,599.820740 548.891968,615.086304 
	C548.733459,617.955139 549.610657,620.881287 550.035828,623.968872 
	C570.520081,625.003174 590.467590,626.124634 610.428345,626.907410 
	C613.809937,627.040100 615.760376,627.993164 616.507080,631.163391 
	C617.754700,636.459900 618.904602,641.779541 620.158569,647.525513 
M632.026184,241.135620 
	C632.375366,240.990326 632.724487,240.845032 633.073669,240.699738 
	C632.725220,240.457718 632.376770,240.215698 631.876770,239.418335 
	C631.416931,239.074615 630.957031,238.730911 629.907715,237.867218 
	C629.522339,237.959030 629.136902,238.050827 628.751526,238.142654 
	C629.010986,238.576370 629.270447,239.010101 629.906189,239.906967 
	C630.433716,240.175674 630.961243,240.444397 632.026184,241.135620 
z"/>
<path fill="#CECECE" opacity="1.000000" stroke="none" 
	d="
M1401.862305,1364.891235 
	C1407.052002,1364.812134 1412.241577,1364.733032 1418.173096,1364.366699 
	C1486.102661,1364.078979 1553.290283,1364.069824 1620.478027,1364.112183 
	C1622.939941,1364.113770 1625.401489,1364.619019 1627.863281,1364.889404 
	C1633.326904,1364.913330 1638.790649,1364.937256 1645.105225,1364.931763 
	C1658.661377,1364.627808 1671.365723,1364.256958 1684.072388,1364.130249 
	C1688.667480,1364.084351 1693.268555,1364.622803 1697.866821,1364.894653 
	C1703.052734,1364.810791 1708.238770,1364.726929 1713.683716,1364.379761 
	C1783.596313,1364.103516 1853.249878,1364.077515 1922.903442,1364.119141 
	C1926.037109,1364.120972 1929.393799,1364.153931 1932.233521,1365.246216 
	C1934.497559,1366.117310 1936.952515,1368.292847 1937.846436,1370.489868 
	C1939.097534,1373.564819 1936.299683,1375.309692 1933.633911,1376.133911 
	C1930.965576,1376.958496 1928.172852,1377.410889 1925.411011,1377.889282 
	C1924.278442,1378.085571 1923.083740,1377.922974 1921.917236,1377.922974 
	C1324.694092,1377.923096 727.470825,1377.924927 130.247635,1377.880005 
	C126.620453,1377.879761 122.944923,1377.482300 119.380844,1376.803467 
	C116.290642,1376.215210 113.147636,1374.443970 114.155540,1370.835449 
	C114.774689,1368.618652 117.173836,1366.152588 119.359070,1365.301636 
	C122.335785,1364.142334 125.870644,1364.122314 129.166565,1364.119995 
	C211.817810,1364.061523 294.469116,1364.069702 377.596680,1364.050171 
	C393.734772,1364.024536 409.396576,1364.015015 425.995453,1364.029053 
	C477.596527,1364.020386 528.260559,1363.988037 578.924622,1363.955811 
	C594.319458,1363.968262 609.714294,1363.980713 626.043335,1364.011230 
	C667.253174,1364.045288 707.528809,1364.078613 747.804504,1364.073120 
	C813.210938,1364.064331 878.617371,1364.030151 944.369324,1364.221680 
	C980.710693,1364.472046 1016.706543,1364.511963 1052.702393,1364.520752 
	C1053.848633,1364.520996 1054.994995,1364.203125 1056.518555,1364.185669 
	C1064.712891,1364.537842 1072.529785,1364.737915 1080.768311,1364.774292 
	C1120.840088,1364.588379 1160.490234,1364.571167 1200.140381,1364.531128 
	C1202.465942,1364.528809 1204.791382,1364.344604 1207.452271,1364.465210 
	C1215.650146,1364.766724 1223.512573,1364.848022 1231.795776,1364.769043 
	C1242.129272,1364.402588 1252.041992,1364.196411 1262.425415,1364.022705 
	C1285.595947,1364.043945 1308.295654,1364.032959 1331.197876,1364.257324 
	C1332.198730,1364.618774 1332.997314,1364.744995 1333.795776,1364.871094 
	C1338.290283,1364.899414 1342.784668,1364.927612 1348.144043,1364.928711 
	C1362.363281,1364.627075 1375.717041,1364.267578 1389.072876,1364.127319 
	C1393.332886,1364.082764 1397.598999,1364.620117 1401.862305,1364.891235 
z"/>
<path fill="#FFB6B6" opacity="1.000000" stroke="none" 
	d="
M1011.028076,629.303650 
	C1007.250916,619.534424 1003.473755,609.765137 999.622009,599.613281 
	C1012.379395,594.272705 1025.242432,595.205444 1037.032349,601.442383 
	C1042.922241,604.558228 1048.076660,604.890137 1054.040161,603.818054 
	C1094.812988,596.487610 1135.593628,589.200745 1176.372437,581.903870 
	C1181.748901,580.941833 1187.129150,580.001648 1192.853027,579.424805 
	C1193.520386,581.581543 1193.324707,583.710144 1194.247314,585.092590 
	C1200.993652,595.201904 1208.053955,605.101624 1214.801025,615.210510 
	C1216.481445,617.728210 1218.259155,618.320312 1221.046753,617.733093 
	C1226.082642,616.672241 1231.177979,615.896118 1236.239136,614.951660 
	C1250.429199,612.303467 1264.614746,609.630188 1279.239990,606.979004 
	C1283.805420,606.291138 1287.932861,605.591125 1292.447021,604.891968 
	C1297.528076,602.881104 1299.870972,604.799988 1301.839478,609.260437 
	C1306.058594,618.820496 1310.786987,628.160217 1315.453247,637.517151 
	C1319.215698,645.061890 1323.193115,652.499451 1327.075073,659.984558 
	C1327.137329,664.085876 1323.788086,663.698792 1321.409668,663.889465 
	C1302.929688,665.370605 1284.424683,666.544983 1265.948608,668.070496 
	C1243.859985,669.894165 1221.800049,672.066650 1199.712524,673.905701 
	C1185.194824,675.114441 1170.650879,676.005493 1156.117798,677.028015 
	C1152.567505,677.277832 1149.598633,678.235840 1147.121094,681.256165 
	C1132.696045,698.841858 1103.460693,701.391968 1085.445679,691.768738 
	C1069.342651,683.166748 1062.435059,664.509766 1069.967285,647.874268 
	C1074.838379,641.518555 1079.451660,635.829041 1084.742554,629.303650 
	C1060.022339,629.303650 1035.525269,629.303650 1011.028076,629.303650 
z"/>
<path fill="#5750CC" opacity="1.000000" stroke="none" 
	d="
M1278.802002,606.966797 
	C1264.614746,609.630188 1250.429199,612.303467 1236.239136,614.951660 
	C1231.177979,615.896118 1226.082642,616.672241 1221.046753,617.733093 
	C1218.259155,618.320312 1216.481445,617.728210 1214.801025,615.210510 
	C1208.053955,605.101624 1200.993652,595.201904 1194.247314,585.092590 
	C1193.324707,583.710144 1193.520386,581.581543 1193.294922,579.467407 
	C1205.316772,555.954529 1217.299683,532.801941 1229.154541,509.584015 
	C1248.187500,472.307709 1267.135742,434.988159 1286.169434,397.321106 
	C1291.145630,388.805817 1296.166016,380.710846 1300.944092,372.475250 
	C1302.484009,369.821106 1304.322510,368.612457 1307.702026,369.746033 
	C1307.616211,372.338623 1307.328003,374.495850 1306.645386,376.520111 
	C1300.911011,393.523529 1294.465210,410.317688 1289.486450,427.537140 
	C1283.672852,447.643463 1272.617920,465.083649 1263.027222,483.264679 
	C1255.875977,496.820984 1250.564453,510.406464 1251.802368,526.244080 
	C1252.930298,540.677734 1256.711548,554.049927 1264.552002,566.075317 
	C1271.701416,577.041199 1279.548828,587.552063 1286.875244,598.503052 
	C1284.041992,601.484009 1281.421997,604.225403 1278.802002,606.966797 
z"/>
<path fill="#FFFFFF" opacity="1.000000" stroke="none" 
	d="
M944.023804,1364.006592 
	C878.617371,1364.030151 813.210938,1364.064331 747.804504,1364.073120 
	C707.528809,1364.078613 667.253174,1364.045288 626.515137,1364.000122 
	C626.048096,1154.672241 626.059143,945.373718 625.942383,736.075256 
	C625.939575,731.127258 627.585144,729.943298 632.270996,729.946106 
	C800.909607,730.047241 969.548218,730.053101 1138.186768,729.922607 
	C1143.160522,729.918762 1144.213135,731.481079 1144.145264,736.138489 
	C1143.882812,754.131592 1144.037231,772.130737 1143.728027,790.822021 
	C1099.525024,803.853271 1055.533325,815.859436 1011.776123,828.666443 
	C989.843140,835.085938 972.332031,848.108337 962.123901,869.104736 
	C951.076111,891.828308 952.482788,915.579590 959.719849,938.810303 
	C965.445740,957.190369 973.403748,974.867004 980.139343,992.942139 
	C995.118469,1033.138916 1005.348938,1074.655029 1012.596313,1116.826904 
	C1017.427551,1144.939209 1023.403809,1172.944458 1022.239746,1201.911865 
	C1021.290466,1225.531982 1022.342834,1249.230591 1022.379883,1272.894775 
	C1022.383362,1275.110718 1021.993835,1277.638184 1020.898132,1279.497314 
	C1008.311646,1300.851929 995.594177,1322.130005 982.747131,1343.328857 
	C981.902527,1344.722412 979.830994,1345.751953 978.135315,1346.181030 
	C972.500977,1347.607056 966.595703,1348.150269 961.133179,1350.021362 
	C953.868164,1352.509888 946.878723,1355.876221 944.023804,1364.006592 
z"/>
<path fill="#0A0915" opacity="1.000000" stroke="none" 
	d="
M944.369324,1364.221680 
	C946.878723,1355.876221 953.868164,1352.509888 961.133179,1350.021362 
	C966.595703,1348.150269 972.500977,1347.607056 978.135315,1346.181030 
	C979.830994,1345.751953 981.902527,1344.722412 982.747131,1343.328857 
	C995.594177,1322.130005 1008.311646,1300.851929 1020.898132,1279.497314 
	C1021.993835,1277.638184 1022.383362,1275.110718 1022.379883,1272.894775 
	C1022.342834,1249.230591 1021.290466,1225.531982 1022.239746,1201.911865 
	C1023.403809,1172.944458 1017.427551,1144.939209 1012.596313,1116.826904 
	C1005.348938,1074.655029 995.118469,1033.138916 980.139343,992.942139 
	C973.403748,974.867004 965.445740,957.190369 959.719849,938.810303 
	C952.482788,915.579590 951.076111,891.828308 962.123901,869.104736 
	C972.332031,848.108337 989.843140,835.085938 1011.776123,828.666443 
	C1055.533325,815.859436 1099.525024,803.853271 1143.719604,791.295227 
	C1159.834839,786.696899 1175.650269,782.319702 1192.189209,777.742920 
	C1226.974976,767.978394 1261.037109,758.413391 1295.136719,749.265686 
	C1294.055420,754.321106 1292.936768,758.959229 1291.926270,763.148499 
	C1309.640991,763.148499 1327.064819,763.148499 1344.488770,763.148499 
	C1344.554688,774.795105 1344.669556,786.441650 1344.677612,798.088318 
	C1344.702515,834.206360 1344.686890,870.324341 1344.686890,906.442383 
	C1344.686890,908.257568 1344.686890,910.072693 1344.686890,912.687134 
	C1342.660767,912.687134 1340.918823,912.709351 1339.177612,912.683594 
	C1325.198364,912.476807 1311.202637,912.589722 1297.248169,911.886597 
	C1291.660522,911.605103 1289.395874,913.904114 1288.305542,918.650818 
	C1287.823242,920.750244 1287.374512,922.857300 1286.465576,925.421997 
	C1263.991821,926.776917 1241.963135,927.670654 1219.564087,928.579407 
	C1220.126587,930.139954 1220.461914,931.226013 1220.901733,932.267883 
	C1236.055542,968.161865 1244.646729,1005.707214 1247.751099,1044.405151 
	C1252.200439,1099.866699 1248.119263,1154.844482 1236.566528,1209.287476 
	C1233.990479,1221.426636 1228.682373,1233.345581 1234.146851,1246.264160 
	C1236.254761,1251.247559 1236.379639,1257.060913 1243.446533,1257.835693 
	C1244.169556,1257.914917 1244.868164,1258.677734 1245.481567,1259.230469 
	C1256.111572,1268.810059 1262.516602,1280.877197 1262.766724,1295.021973 
	C1263.173340,1317.999390 1262.292236,1340.999756 1261.954834,1363.990356 
	C1252.041992,1364.196411 1242.129272,1364.402588 1231.671265,1364.326172 
	C1231.125977,1351.558228 1231.125977,1339.072998 1231.125977,1326.549072 
	C1223.150635,1339.070923 1215.133667,1351.658081 1207.116821,1364.245117 
	C1204.791382,1364.344604 1202.465942,1364.528809 1200.140381,1364.531128 
	C1160.490234,1364.571167 1120.840088,1364.588379 1080.606201,1364.333984 
	C1080.022461,1351.414185 1080.022461,1338.771240 1080.022461,1326.223755 
	C1072.171265,1338.654175 1064.156250,1351.343872 1056.141235,1364.033569 
	C1054.994995,1364.203125 1053.848633,1364.520996 1052.702393,1364.520752 
	C1016.706543,1364.511963 980.710693,1364.472046 944.369324,1364.221680 
M1145.782349,1323.727905 
	C1154.489746,1309.187134 1163.220825,1294.660522 1171.869263,1280.084839 
	C1172.770020,1278.566650 1173.749756,1276.752686 1173.734131,1275.085083 
	C1173.505615,1250.630005 1174.229980,1226.097290 1172.499390,1201.741333 
	C1169.907715,1165.266724 1164.619385,1129.042725 1156.927246,1093.250610 
	C1153.378540,1076.738770 1149.060181,1060.392334 1145.104614,1043.167603 
	C1136.584961,1003.930847 1118.216064,968.115601 1105.765625,930.192261 
	C1094.164917,930.192261 1082.468140,930.192261 1070.307129,930.192261 
	C1072.612915,935.853455 1074.822021,941.025818 1076.840454,946.271545 
	C1098.796265,1003.334595 1103.800903,1062.753418 1100.696411,1123.141602 
	C1098.700806,1161.960083 1092.296631,1200.175293 1083.164307,1237.980225 
	C1081.951904,1242.999634 1084.008057,1249.027344 1085.465088,1254.336914 
	C1085.890503,1255.887207 1089.513184,1256.512085 1091.610718,1257.668823 
	C1092.914673,1258.388062 1094.309692,1259.115967 1095.318237,1260.170410 
	C1105.183594,1270.483765 1111.650024,1282.452393 1111.639038,1297.030396 
	C1111.626709,1313.191528 1111.093750,1329.352539 1110.794434,1345.513672 
	C1110.767578,1346.964111 1110.790894,1348.415771 1110.790894,1349.792236 
	C1117.741089,1348.517090 1124.278931,1347.371094 1130.784912,1346.066528 
	C1131.765991,1345.869873 1132.947632,1345.142212 1133.445557,1344.307739 
	C1137.444336,1337.605713 1141.301025,1330.819214 1145.782349,1323.727905 
z"/>
<path fill="#FFFFFF" opacity="1.000000" stroke="none" 
	d="
M578.934082,1363.491699 
	C528.260559,1363.988037 477.596527,1364.020386 426.463806,1364.028809 
	C425.995087,1152.926636 425.995087,941.848328 425.995087,730.305542 
	C428.293396,730.197571 430.066498,730.041931 431.839630,730.041443 
	C478.662628,730.028137 525.485596,730.029358 572.308594,730.032654 
	C578.937256,730.033081 578.949463,730.044006 578.949463,736.665771 
	C578.949036,945.453003 578.946045,1154.240234 578.934082,1363.491699 
z"/>
<path fill="#6C63FE" opacity="1.000000" stroke="none" 
	d="
M1287.088501,598.263489 
	C1279.548828,587.552063 1271.701416,577.041199 1264.552002,566.075317 
	C1256.711548,554.049927 1252.930298,540.677734 1251.802368,526.244080 
	C1250.564453,510.406464 1255.875977,496.820984 1263.027222,483.264679 
	C1272.617920,465.083649 1283.672852,447.643463 1289.486450,427.537140 
	C1294.465210,410.317688 1300.911011,393.523529 1306.645386,376.520111 
	C1307.328003,374.495850 1307.616211,372.338623 1308.092163,369.860229 
	C1309.670776,368.306335 1311.368530,367.268890 1312.798828,365.943024 
	C1324.082275,355.482910 1335.314819,344.967682 1346.847168,334.790100 
	C1345.368774,344.766388 1343.606201,354.422058 1341.530151,364.274353 
	C1333.478760,402.235413 1325.612549,439.974579 1318.157349,477.794739 
	C1317.171997,482.793243 1317.475586,488.381287 1318.569336,493.393524 
	C1322.396118,510.928131 1326.823364,528.331848 1331.037109,545.781616 
	C1333.074341,554.218262 1335.145020,562.646851 1337.200562,571.079041 
	C1337.696533,571.142517 1338.192505,571.205994 1338.688599,571.269531 
	C1339.897339,568.291321 1340.743408,565.095032 1342.379761,562.373962 
	C1348.350342,552.446045 1348.224243,542.828308 1341.610718,533.311096 
	C1339.253052,529.918091 1339.862549,526.845093 1341.630005,523.186523 
	C1373.244507,457.744507 1404.713379,392.232147 1436.183716,326.720581 
	C1437.557129,323.861847 1438.647339,320.867096 1439.869507,317.935730 
	C1449.735229,325.813843 1458.865845,334.933899 1469.625000,341.302826 
	C1489.917480,353.315033 1498.441284,371.668640 1502.022705,393.583099 
	C1507.041138,424.292786 1505.442749,454.987152 1501.238403,485.561218 
	C1498.478760,505.629517 1494.517334,525.532410 1491.111450,545.512329 
	C1491.008057,546.118958 1491.098389,546.758545 1491.098389,548.191589 
	C1496.410767,546.669128 1501.291260,545.270386 1506.550781,543.765198 
	C1507.942627,561.072693 1508.321899,578.552795 1510.130493,595.883789 
	C1512.357788,617.227722 1516.270020,638.350952 1525.948364,657.835083 
	C1528.130737,662.228455 1530.806274,666.869324 1534.469849,669.952271 
	C1553.878418,686.285034 1569.333252,706.052063 1584.525024,726.086365 
	C1589.551147,732.714844 1594.053589,739.781250 1599.485596,746.049377 
	C1604.585815,751.934570 1604.575562,757.435669 1600.023926,763.544067 
	C1587.526611,742.741943 1569.950806,729.723755 1546.156372,725.571777 
	C1532.731689,723.229309 1519.183350,723.544983 1506.013794,726.655823 
	C1490.516479,730.316589 1475.294556,735.143005 1459.951050,739.456177 
	C1453.130249,741.373657 1446.304077,743.272339 1439.275146,745.236938 
	C1431.665405,728.497009 1424.258423,712.202942 1416.851440,695.908936 
	C1430.302490,695.908936 1443.753540,695.908936 1457.555420,695.908936 
	C1457.555420,679.764465 1457.555420,664.216003 1457.555420,648.122986 
	C1455.766968,648.031311 1454.011108,647.864990 1452.255005,647.863159 
	C1434.272949,647.843933 1416.290527,647.893127 1398.308960,647.803528 
	C1395.784180,647.791016 1393.262573,647.135254 1390.058960,646.680664 
	C1389.932251,646.775879 1388.750366,647.204102 1388.403442,647.997498 
	C1384.964478,655.862000 1377.595337,654.146240 1371.404663,654.908630 
	C1356.907593,656.694092 1342.372437,658.171509 1327.463867,659.879089 
	C1323.193115,652.499451 1319.215698,645.061890 1315.453247,637.517151 
	C1310.786987,628.160217 1306.058594,618.820496 1301.839478,609.260437 
	C1299.870972,604.799988 1297.528076,602.881104 1292.327881,604.587158 
	C1290.244141,602.275452 1288.666382,600.269470 1287.088501,598.263489 
z"/>
<path fill="#FEFEFF" opacity="1.000000" stroke="none" 
	d="
M1262.425537,1364.022705 
	C1262.292236,1340.999756 1263.173340,1317.999390 1262.766724,1295.021973 
	C1262.516602,1280.877197 1256.111572,1268.810059 1245.481567,1259.230469 
	C1244.868164,1258.677734 1244.169556,1257.914917 1243.446533,1257.835693 
	C1236.379639,1257.060913 1236.254761,1251.247559 1234.146851,1246.264160 
	C1228.682373,1233.345581 1233.990479,1221.426636 1236.566528,1209.287476 
	C1248.119263,1154.844482 1252.200439,1099.866699 1247.751099,1044.405151 
	C1244.646729,1005.707214 1236.055542,968.161865 1220.901733,932.267883 
	C1220.461914,931.226013 1220.126587,930.139954 1219.564087,928.579407 
	C1241.963135,927.670654 1263.991821,926.776917 1286.476807,925.812195 
	C1285.495239,941.430908 1294.880615,950.621643 1306.625977,958.294128 
	C1316.635864,964.832947 1327.838623,968.559875 1339.376709,971.169006 
	C1343.796997,972.168640 1345.078003,974.065552 1345.068848,978.571106 
	C1344.919556,1052.212158 1344.962891,1125.853638 1344.962891,1199.494995 
	C1344.962891,1232.816895 1344.962891,1266.138794 1344.962891,1299.460693 
	C1344.962891,1308.202515 1344.963013,1308.202515 1335.994507,1309.678223 
	C1335.994507,1315.476318 1336.214355,1321.427124 1335.853149,1327.342407 
	C1335.751953,1329.002441 1334.320801,1331.246704 1332.855713,1332.053223 
	C1320.560059,1338.821655 1319.355347,1353.982422 1330.802124,1363.008423 
	C1330.995728,1363.529907 1330.995483,1364.021851 1330.995483,1364.021973 
	C1308.295654,1364.032959 1285.595947,1364.043945 1262.425537,1364.022705 
z"/>
<path fill="#0A0915" opacity="1.000000" stroke="none" 
	d="
M1416.468262,695.806763 
	C1424.258423,712.202942 1431.665405,728.497009 1439.275146,745.236938 
	C1446.304077,743.272339 1453.130249,741.373657 1459.951050,739.456177 
	C1475.294556,735.143005 1490.516479,730.316589 1506.013794,726.655823 
	C1519.183350,723.544983 1532.731689,723.229309 1546.156372,725.571777 
	C1569.950806,729.723755 1587.526611,742.741943 1599.761230,763.773987 
	C1605.484497,776.805420 1612.159302,789.255066 1616.182495,802.509644 
	C1628.307495,842.455261 1612.937988,872.727356 1582.381714,895.332642 
	C1577.953003,898.608887 1571.081421,898.736023 1565.264038,899.956909 
	C1529.431641,907.477234 1493.000610,909.221924 1456.579346,910.861023 
	C1438.112427,911.692017 1419.621826,911.998169 1401.141235,912.517151 
	C1398.498901,912.591431 1395.852661,912.527466 1392.837402,912.527466 
	C1392.837402,840.232727 1392.837402,768.211548 1392.837402,695.704529 
	C1400.580322,695.704529 1408.332642,695.704529 1416.468262,695.806763 
z"/>
<path fill="#FFFFFF" opacity="1.000000" stroke="none" 
	d="
M1502.004883,1189.000000 
	C1502.004761,1227.488892 1501.931641,1265.478271 1502.104004,1303.466309 
	C1502.123901,1307.858521 1500.982788,1309.083130 1496.542969,1309.059326 
	C1463.886963,1308.884521 1431.229004,1308.918335 1398.572754,1309.090698 
	C1394.391724,1309.112671 1392.837646,1308.315063 1392.843750,1303.674927 
	C1392.982178,1197.539307 1392.949463,1091.403687 1392.960083,985.268005 
	C1392.960205,983.659790 1393.104858,982.051575 1393.180664,980.472168 
	C1404.586792,981.135986 1415.459473,981.768738 1426.698975,982.422852 
	C1426.898804,985.140015 1427.088745,987.720764 1427.258545,990.028687 
	C1439.304199,990.028687 1451.051270,990.116394 1462.795898,989.981995 
	C1467.017090,989.933655 1470.556763,990.906372 1474.466309,992.889709 
	C1481.350098,996.381592 1488.968140,998.432739 1496.298462,1001.031738 
	C1497.995239,1001.633301 1499.771118,1002.011841 1502.004883,1002.629639 
	C1502.004883,1064.618164 1502.004883,1126.559082 1502.004883,1189.000000 
z"/>
<path fill="#FEFEFF" opacity="1.000000" stroke="none" 
	d="
M1627.866089,1364.554199 
	C1625.401489,1364.619019 1622.939941,1364.113770 1620.478027,1364.112183 
	C1553.290283,1364.069824 1486.102661,1364.078979 1418.443481,1364.103760 
	C1423.557983,1359.769409 1428.396973,1354.620972 1426.834961,1347.022339 
	C1425.798096,1341.978638 1422.948364,1337.307861 1420.939209,1332.539429 
	C1488.412964,1332.539429 1557.299438,1332.539429 1626.686646,1332.539429 
	C1624.929932,1334.669312 1623.051392,1336.435669 1621.788818,1338.566895 
	C1616.600708,1347.324707 1618.391602,1355.981812 1626.436401,1362.301270 
	C1627.042114,1362.777344 1627.397217,1363.572388 1627.866089,1364.554199 
z"/>
<path fill="#FEFEFE" opacity="1.000000" stroke="none" 
	d="
M1295.099365,748.848389 
	C1261.037109,758.413391 1226.974976,767.978394 1192.499512,777.575806 
	C1192.065308,763.275146 1192.177612,748.939758 1191.936646,734.610413 
	C1191.870483,730.672729 1193.340820,729.946716 1196.890503,729.959900 
	C1231.056641,730.086487 1265.223145,730.054382 1299.772095,730.471252 
	C1298.469482,736.866089 1296.784424,742.857239 1295.099365,748.848389 
z"/>
<path fill="#6C63FF" opacity="1.000000" stroke="none" 
	d="
M1295.136719,749.265686 
	C1296.784424,742.857239 1298.469482,736.866089 1300.263550,730.496338 
	C1314.944092,730.117737 1329.515747,730.117737 1344.724121,730.117737 
	C1344.724121,741.125549 1344.724121,751.678406 1344.606445,762.689941 
	C1327.064819,763.148499 1309.640991,763.148499 1291.926270,763.148499 
	C1292.936768,758.959229 1294.055420,754.321106 1295.136719,749.265686 
z"/>
<path fill="#0C0A18" opacity="1.000000" stroke="none" 
	d="
M1011.032227,629.704529 
	C1035.525269,629.303650 1060.022339,629.303650 1084.742554,629.303650 
	C1079.451660,635.829041 1074.838379,641.518555 1070.072754,647.506714 
	C1034.943359,647.783386 999.966248,647.761414 964.244629,647.467224 
	C961.364807,646.864807 959.229431,646.534546 957.094116,646.204346 
	C970.086304,645.956360 983.082336,645.831970 996.069397,645.421082 
	C1006.314087,645.097046 1010.757874,640.375916 1011.032227,629.704529 
z"/>
<path fill="#FEFEFE" opacity="1.000000" stroke="none" 
	d="
M1697.853027,1364.568481 
	C1693.268555,1364.622803 1688.667480,1364.084351 1684.072388,1364.130249 
	C1671.365723,1364.256958 1658.661377,1364.627808 1645.543579,1364.898682 
	C1645.975342,1363.558105 1646.619141,1362.026733 1647.696289,1360.915283 
	C1655.635742,1352.722534 1655.788086,1343.804199 1648.037964,1335.475098 
	C1647.379639,1334.767700 1646.819946,1333.968628 1645.691406,1332.558594 
	C1662.744263,1332.558594 1679.100952,1332.558594 1696.052246,1332.558594 
	C1695.233643,1333.760376 1694.798218,1334.590088 1694.189697,1335.263794 
	C1686.011353,1344.319702 1686.594971,1354.277954 1695.781006,1362.213501 
	C1696.508423,1362.841919 1697.155029,1363.563843 1697.853027,1364.568481 
z"/>
<path fill="#FEFEFF" opacity="1.000000" stroke="none" 
	d="
M1401.849121,1364.565918 
	C1397.598999,1364.620117 1393.332886,1364.082764 1389.072876,1364.127319 
	C1375.717041,1364.267578 1362.363281,1364.627075 1348.575195,1364.895996 
	C1351.005859,1360.749146 1354.109741,1357.588745 1359.966309,1357.875854 
	C1369.221069,1358.329468 1378.516113,1358.089600 1387.790161,1357.923462 
	C1389.835938,1357.886719 1391.865234,1356.931396 1392.180664,1357.347290 
	C1395.399170,1359.645142 1398.617554,1361.942871 1401.849121,1364.565918 
z"/>
<path fill="#514F71" opacity="1.000000" stroke="none" 
	d="
M956.632080,646.099487 
	C959.229431,646.534546 961.364807,646.864807 963.781006,647.438232 
	C954.609558,647.795105 945.157104,648.006042 935.704773,648.001831 
	C917.269958,647.993591 898.835205,647.864929 879.994263,647.770630 
	C880.884766,647.603271 882.179443,647.340454 883.478516,647.315979 
	C907.708679,646.858643 931.939453,646.429565 956.632080,646.099487 
z"/>
<path fill="#FEFEFE" opacity="1.000000" stroke="none" 
	d="
M1396.301025,1337.420288 
	C1394.992065,1339.852173 1393.876465,1341.978271 1392.464478,1344.669067 
	C1391.198975,1331.708130 1391.339233,1331.520142 1401.520020,1332.358398 
	C1399.692261,1334.088013 1398.093262,1335.601318 1396.301025,1337.420288 
z"/>
<path fill="#FEFEFE" opacity="1.000000" stroke="none" 
	d="
M1331.197876,1364.257202 
	C1330.995483,1364.021851 1330.995728,1363.529907 1330.991943,1363.284302 
	C1331.849487,1363.468384 1332.710938,1363.898193 1333.684082,1364.599487 
	C1332.997314,1364.744995 1332.198730,1364.618774 1331.197876,1364.257202 
z"/>
<path fill="#FEB5B5" opacity="1.000000" stroke="none" 
	d="
M1341.843628,364.077698 
	C1343.606201,354.422058 1345.368774,344.766388 1347.166016,334.708496 
	C1350.191650,328.172760 1349.401001,322.759064 1344.937500,317.415497 
	C1341.654297,313.484894 1339.002808,308.972198 1336.457642,304.498260 
	C1334.743408,301.485107 1332.770386,300.613983 1329.282349,300.864655 
	C1304.088867,302.675079 1281.027466,296.551300 1260.821411,281.150055 
	C1232.199219,259.334045 1219.163330,229.972900 1220.313232,194.327133 
	C1220.666382,183.378204 1223.187988,172.629288 1227.791382,162.487671 
	C1229.969482,163.899002 1231.827393,165.435364 1233.941650,166.423172 
	C1267.079590,181.906052 1300.180054,197.473389 1333.494141,212.569138 
	C1338.164673,214.685532 1341.823364,217.192444 1345.075928,221.003525 
	C1373.978027,254.869019 1404.775024,286.908234 1437.836426,317.011292 
	C1437.211914,318.100647 1436.573486,318.863861 1436.034058,319.691711 
	C1401.442505,372.787933 1366.859009,425.889526 1332.273560,478.989777 
	C1331.379272,480.362915 1330.471313,481.727234 1329.569702,483.095673 
	C1331.882935,454.803223 1335.239868,427.060181 1338.415039,399.296387 
	C1339.755005,387.579376 1340.712280,375.818573 1341.843628,364.077698 
z"/>
<path fill="#0C0A18" opacity="1.000000" stroke="none" 
	d="
M1341.530151,364.274353 
	C1340.712280,375.818573 1339.755005,387.579376 1338.415039,399.296387 
	C1335.239868,427.060181 1331.882935,454.803223 1329.569702,483.095673 
	C1330.471313,481.727234 1331.379272,480.362915 1332.273560,478.989777 
	C1366.859009,425.889526 1401.442505,372.787933 1436.034058,319.691711 
	C1436.573486,318.863861 1437.211914,318.100647 1438.147217,317.194427 
	C1438.918091,317.251709 1439.345947,317.421783 1439.821655,317.763794 
	C1438.647339,320.867096 1437.557129,323.861847 1436.183716,326.720581 
	C1404.713379,392.232147 1373.244507,457.744507 1341.630005,523.186523 
	C1339.862549,526.845093 1339.253052,529.918091 1341.610718,533.311096 
	C1348.224243,542.828308 1348.350342,552.446045 1342.379761,562.373962 
	C1340.743408,565.095032 1339.897339,568.291321 1338.688599,571.269531 
	C1338.192505,571.205994 1337.696533,571.142517 1337.200562,571.079041 
	C1335.145020,562.646851 1333.074341,554.218262 1331.037109,545.781616 
	C1326.823364,528.331848 1322.396118,510.928131 1318.569336,493.393524 
	C1317.475586,488.381287 1317.171997,482.793243 1318.157349,477.794739 
	C1325.612549,439.974579 1333.478760,402.235413 1341.530151,364.274353 
z"/>
<path fill="#FFFFFF" opacity="1.000000" stroke="none" 
	d="
M630.497192,238.387207 
	C630.957031,238.730911 631.416931,239.074615 631.806763,239.872940 
	C631.736816,240.327545 631.488770,240.713104 631.488770,240.713104 
	C630.961243,240.444397 630.433716,240.175674 629.965454,239.416351 
	C630.182190,238.746231 630.339661,238.566727 630.497192,238.387207 
z"/>
<path fill="#FFFFFF" opacity="1.000000" stroke="none" 
	d="
M629.777344,239.184784 
	C629.270447,239.010101 629.010986,238.576370 628.751526,238.142639 
	C629.136902,238.050827 629.522339,237.959030 630.202454,238.127213 
	C630.339661,238.566727 630.182190,238.746231 629.777344,239.184784 
z"/>
<path fill="#FFFFFF" opacity="1.000000" stroke="none" 
	d="
M631.882568,240.150604 
	C632.376770,240.215698 632.725220,240.457718 633.073669,240.699738 
	C632.724487,240.845032 632.375366,240.990326 631.757446,240.924362 
	C631.488770,240.713104 631.736816,240.327545 631.882568,240.150604 
z"/>
<path fill="#FEFEFE" opacity="1.000000" stroke="none" 
	d="
M1056.518555,1364.185669 
	C1064.156250,1351.343872 1072.171265,1338.654175 1080.022461,1326.223755 
	C1080.022461,1338.771240 1080.022461,1351.414185 1080.184570,1364.497559 
	C1072.529785,1364.737915 1064.712891,1364.537842 1056.518555,1364.185669 
z"/>
<path fill="#FEFEFE" opacity="1.000000" stroke="none" 
	d="
M1207.452271,1364.465332 
	C1215.133667,1351.658081 1223.150635,1339.070923 1231.125977,1326.549072 
	C1231.125977,1339.072998 1231.125977,1351.558228 1231.250488,1364.486450 
	C1223.512573,1364.848022 1215.650146,1364.766724 1207.452271,1364.465332 
z"/>
<path fill="#FEFEFE" opacity="1.000000" stroke="none" 
	d="
M1286.875244,598.503052 
	C1288.666382,600.269470 1290.244141,602.275452 1291.941162,604.586243 
	C1287.932861,605.591125 1283.805420,606.291138 1279.239990,606.979004 
	C1281.421997,604.225403 1284.041992,601.484009 1286.875244,598.503052 
z"/>
<path fill="#FEFEFE" opacity="1.000000" stroke="none" 
	d="
M1145.201294,1324.058472 
	C1141.301025,1330.819214 1137.444336,1337.605713 1133.445557,1344.307739 
	C1132.947632,1345.142212 1131.765991,1345.869873 1130.784912,1346.066528 
	C1124.278931,1347.371094 1117.741089,1348.517090 1110.790894,1349.792236 
	C1110.790894,1348.415771 1110.767578,1346.964111 1110.794434,1345.513672 
	C1111.093750,1329.352539 1111.626709,1313.191528 1111.639038,1297.030396 
	C1111.650024,1282.452393 1105.183594,1270.483765 1095.318237,1260.170410 
	C1094.309692,1259.115967 1092.914673,1258.388062 1091.610718,1257.668823 
	C1089.513184,1256.512085 1085.890503,1255.887207 1085.465088,1254.336914 
	C1084.008057,1249.027344 1081.951904,1242.999634 1083.164307,1237.980225 
	C1092.296631,1200.175293 1098.700806,1161.960083 1100.696411,1123.141602 
	C1103.800903,1062.753418 1098.796265,1003.334595 1076.840454,946.271545 
	C1074.822021,941.025818 1072.612915,935.853455 1070.307129,930.192261 
	C1082.468140,930.192261 1094.164917,930.192261 1105.765625,930.192261 
	C1118.216064,968.115601 1136.584961,1003.930847 1144.787598,1043.854004 
	C1144.328247,1046.016602 1144.061646,1047.492798 1144.061279,1048.968994 
	C1144.041504,1138.967651 1144.037354,1228.966309 1144.091919,1318.964966 
	C1144.093018,1320.663086 1144.815430,1322.360596 1145.201294,1324.058472 
z"/>
<path fill="#D5D5E2" opacity="1.000000" stroke="none" 
	d="
M1145.491821,1323.893188 
	C1144.815430,1322.360596 1144.093018,1320.663086 1144.091919,1318.964966 
	C1144.037354,1228.966309 1144.041504,1138.967651 1144.061279,1048.968994 
	C1144.061646,1047.492798 1144.328247,1046.016602 1144.780762,1044.255615 
	C1149.060181,1060.392334 1153.378540,1076.738770 1156.927246,1093.250610 
	C1164.619385,1129.042725 1169.907715,1165.266724 1172.499390,1201.741333 
	C1174.229980,1226.097290 1173.505615,1250.630005 1173.734131,1275.085083 
	C1173.749756,1276.752686 1172.770020,1278.566650 1171.869263,1280.084839 
	C1163.220825,1294.660522 1154.489746,1309.187134 1145.491821,1323.893188 
z"/>
</svg>